<!DOCTYPE svg PUBLIC "-//W3C//DTD SVG 1.1//EN" "http://www.w3.org/Graphics/SVG/1.1/DTD/svg11.dtd">
<!-- Uploaded to: SVG Repo, www.svgrepo.com, Transformed by: SVG Repo Mixer Tools -->
<svg width="800px" height="800px" viewBox="0 0 400 400" fill="none" xmlns="http://www.w3.org/2000/svg">
<g id="SVGRepo_bgCarrier" stroke-width="0"/>
<g id="SVGRepo_tracerCarrier" stroke-linecap="round" stroke-linejoin="round"/>
<g id="SVGRepo_iconCarrier"> <path d="M165.875 227.216C193.434 223.592 223.034 224.033 248.609 228.166" stroke="#f2ffec" stroke-opacity="0.9" stroke-width="16" stroke-linecap="round" stroke-linejoin="round"/> <path d="M184.149 239.202C186.305 235.44 184.042 232.185 183.532 228.691" stroke="#f2ffec" stroke-opacity="0.9" stroke-width="16" stroke-linecap="round" stroke-linejoin="round"/> <path d="M226.673 237.952C226.673 234.782 226.673 231.611 226.673 228.446" stroke="#f2ffec" stroke-opacity="0.9" stroke-width="16" stroke-linecap="round" stroke-linejoin="round"/> <path d="M166.852 169.756C168.026 164.031 166.251 157.177 165.758 152.273" stroke="#f2ffec" stroke-opacity="0.9" stroke-width="16" stroke-linecap="round" stroke-linejoin="round"/> <path d="M202.913 177.306C203.087 165.328 202.913 153.241 202.913 141.195" stroke="#f2ffec" stroke-opacity="0.9" stroke-width="16" stroke-linecap="round" stroke-linejoin="round"/> <path d="M235.45 164.76C235.082 158.095 234.905 151.463 234.905 144.78" stroke="#f2ffec" stroke-opacity="0.9" stroke-width="16" stroke-linecap="round" stroke-linejoin="round"/> <path d="M91.4068 153.586C42.1211 109.655 104.557 108.056 130.447 148.498" stroke="#f2ffec" stroke-opacity="0.9" stroke-width="16" stroke-linecap="round" stroke-linejoin="round"/> <path d="M274.791 139.562C293.247 85.053 338.23 108.027 301.693 156.399" stroke="#f2ffec" stroke-opacity="0.9" stroke-width="16" stroke-linecap="round" stroke-linejoin="round"/> <path d="M206.479 263.551C226.611 257.262 218.083 280.526 204.304 262.485" stroke="#f2ffec" stroke-opacity="0.9" stroke-width="16" stroke-linecap="round" stroke-linejoin="round"/> <path d="M210.377 276.93C202.99 287.138 198.693 288.53 192.185 291" stroke="#f2ffec" stroke-opacity="0.9" stroke-width="16" stroke-linecap="round" stroke-linejoin="round"/> <path d="M214.511 279.762C217.76 287.119 223.093 286.651 228.3 288.503" stroke="#f2ffec" stroke-opacity="0.9" stroke-width="16" stroke-linecap="round" stroke-linejoin="round"/> <path d="M119.495 243.432C104.904 241.829 85.7296 241.203 73.1145 239.686" stroke="#f2ffec" stroke-opacity="0.9" stroke-width="16" stroke-linecap="round" stroke-linejoin="round"/> <path d="M120.528 271.388C107.545 275.912 94.7465 280.922 81.668 285.124" stroke="#f2ffec" stroke-opacity="0.9" stroke-width="16" stroke-linecap="round" stroke-linejoin="round"/> <path d="M324.384 228.526C311.275 231.643 298.895 237.582 286.778 243.511" stroke="#f2ffec" stroke-opacity="0.9" stroke-width="16" stroke-linecap="round" stroke-linejoin="round"/> <path d="M328 269.807C316.039 268.883 303.812 268.297 286.778 269.407" stroke="#f2ffec" stroke-opacity="0.9" stroke-width="16" stroke-linecap="round" stroke-linejoin="round"/> </g>
</svg>