<!DOCTYPE svg PUBLIC "-//W3C//DTD SVG 1.1//EN" "http://www.w3.org/Graphics/SVG/1.1/DTD/svg11.dtd">
<!-- Uploaded to: SVG Repo, www.svgrepo.com, Transformed by: SVG Repo Mixer Tools -->
<svg width="800px" height="800px" viewBox="0 0 400 400" fill="none" xmlns="http://www.w3.org/2000/svg" stroke="#000000">
<g id="SVGRepo_bgCarrier" stroke-width="0"/>
<g id="SVGRepo_tracerCarrier" stroke-linecap="round" stroke-linejoin="round"/>
<g id="SVGRepo_iconCarrier"> <path d="M104.841 145.759C84.3825 103.24 113.976 93.8934 138.062 126.769" stroke="#f2ffec" stroke-opacity="0.9" stroke-width="16" stroke-linecap="round" stroke-linejoin="round"/> <path d="M278.45 125.67C310.018 85.9308 316.458 123.485 306.365 156.355" stroke="#f2ffec" stroke-opacity="0.9" stroke-width="16" stroke-linecap="round" stroke-linejoin="round"/> <path d="M174.149 149.888C174.479 144.709 174.812 139.541 175.142 134.374" stroke="#f2ffec" stroke-opacity="0.9" stroke-width="16" stroke-linecap="round" stroke-linejoin="round"/> <path d="M208.585 156.344C208.228 146.42 209.43 136.477 210.574 126.629" stroke="#f2ffec" stroke-opacity="0.9" stroke-width="16" stroke-linecap="round" stroke-linejoin="round"/> <path d="M241.358 149.884C243.072 144.904 242.021 139.545 242.355 134.378" stroke="#f2ffec" stroke-opacity="0.9" stroke-width="16" stroke-linecap="round" stroke-linejoin="round"/> <path d="M164.116 198.803C205.073 198.238 196.821 210.153 161.861 223.33" stroke="#f2ffec" stroke-opacity="0.9" stroke-width="16" stroke-linecap="round" stroke-linejoin="round"/> <path d="M237.844 197.687C203.614 212.709 210.546 206.414 236.697 223.526" stroke="#f2ffec" stroke-opacity="0.9" stroke-width="16" stroke-linecap="round" stroke-linejoin="round"/> <path d="M196.887 254.533C179.946 255.472 195.528 273.667 210.195 255.646" stroke="#f2ffec" stroke-opacity="0.9" stroke-width="16" stroke-linecap="round" stroke-linejoin="round"/> <path d="M193.39 286.642C181.827 291.678 175.892 289.505 167.537 282.956" stroke="#f2ffec" stroke-opacity="0.9" stroke-width="16" stroke-linecap="round" stroke-linejoin="round"/> <path d="M197.268 282.956C206.418 297.428 220.936 292.334 232.171 282.956" stroke="#f2ffec" stroke-opacity="0.9" stroke-width="16" stroke-linecap="round" stroke-linejoin="round"/> <path d="M109.366 231.278C96.7847 231.121 76.1524 227.207 68 226.11" stroke="#f2ffec" stroke-opacity="0.9" stroke-width="16" stroke-linecap="round" stroke-linejoin="round"/> <path d="M111.951 256.852C96.0698 257.608 82.1144 261.134 69.2927 267.182" stroke="#f2ffec" stroke-opacity="0.9" stroke-width="16" stroke-linecap="round" stroke-linejoin="round"/> <path d="M333 214.223C316.165 216.03 302.204 220.205 289.049 228.707" stroke="#f2ffec" stroke-opacity="0.9" stroke-width="16" stroke-linecap="round" stroke-linejoin="round"/> <path d="M331.965 262.448C318.367 258.875 304.68 258.572 290.599 258.572" stroke="#f2ffec" stroke-opacity="0.9" stroke-width="16" stroke-linecap="round" stroke-linejoin="round"/> </g>
</svg>